<svg xmlns="http://www.w3.org/2000/svg" xmlns:xlink="http://www.w3.org/1999/xlink" version="1.1" width="1000" height="1000" viewBox="0 0 1000 1000" xml:space="preserve">
<desc>Created with Fabric.js 3.5.0</desc>
<defs>
</defs>
<rect x="0" y="0" width="100%" height="100%" fill="rgba(255,255,255,0)"/>
<g transform="matrix(5.9375 0 0 5.9375 496.6075 490.0667)" id="169852">
<g style="">
		<g transform="matrix(4.268 0 0 4.268 -11.6627 10.92)" id="414928">
<path style="stroke: none; stroke-width: 1; stroke-dasharray: none; stroke-linecap: butt; stroke-dashoffset: 0; stroke-linejoin: miter; stroke-miterlimit: 4; is-custom-font: none; font-file-url: none; fill: rgb(255,255,255); fill-rule: nonzero; opacity: 1;" transform=" translate(-16.3643, -28.107)" d="M 28.8932 13.9302 C 29.3369 13.4952 30.0394 13.4717 30.5111 13.8761 C 31.0374 14.3272 31.072 15.1295 30.5866 15.6242 L 5.53722 41.1521 C 5.28827 41.4058 4.99941 41.617 4.68213 41.7773 L 3.20803 42.5219 C 2.83365 42.711 2.38017 42.6383 2.08358 42.3418 C 1.76892 42.0271 1.70841 41.5388 1.93675 41.1569 L 2.87214 39.5922 C 3.01753 39.349 3.19356 39.1255 3.3959 38.9271 L 28.8932 13.9302 Z" stroke-linecap="round"/>
</g>
		<g transform="matrix(4.268 0 0 4.268 0 0)" id="461200">
<path style="stroke: none; stroke-width: 1; stroke-dasharray: none; stroke-linecap: butt; stroke-dashoffset: 0; stroke-linejoin: miter; stroke-miterlimit: 4; is-custom-font: none; font-file-url: none; fill: rgb(255,255,255); fill-rule: evenodd; opacity: 1;" transform=" translate(-19.0968, -25.5484)" d="M 5.16129 9.80649 H 33.0323 C 34.1725 9.80649 35.0968 10.7308 35.0968 11.871 V 39.2258 C 35.0968 40.366 34.1725 41.2904 33.0323 41.2904 H 9.88123 L 6.78445 44.3871 H 33.0323 C 35.8828 44.3871 38.1936 42.0763 38.1936 39.2258 V 11.871 C 38.1936 9.02051 35.8828 6.70972 33.0323 6.70972 H 5.16129 C 2.31079 6.70972 0 9.02051 0 11.871 V 38.5841 L 3.09677 35.4874 V 11.871 C 3.09677 10.7308 4.02109 9.80649 5.16129 9.80649 Z" stroke-linecap="round"/>
</g>
		<g transform="matrix(4.268 0 0 4.268 -4.2673 -20.5013)" id="426549">
<path style="stroke: none; stroke-width: 1; stroke-dasharray: none; stroke-linecap: butt; stroke-dashoffset: 0; stroke-linejoin: miter; stroke-miterlimit: 4; is-custom-font: none; font-file-url: none; fill: rgb(255,255,255); fill-rule: nonzero; opacity: 1;" transform=" translate(-18.0969, -20.7449)" d="M 17.7292 14.3546 C 17.7729 13.8788 18.172 13.5146 18.6499 13.5146 C 19.1605 13.5146 19.5744 13.9286 19.5744 14.4392 L 19.5744 26.4978 C 19.5744 27.3138 18.913 27.9752 18.097 27.9752 C 17.2277 27.9752 16.5463 27.2283 16.6258 26.3627 L 17.7292 14.3546 Z" stroke-linecap="round"/>
</g>
		<g transform="matrix(4.268 0 0 4.268 19.6802 3.4541)" id="625255">
<path style="stroke: none; stroke-width: 1; stroke-dasharray: none; stroke-linecap: butt; stroke-dashoffset: 0; stroke-linejoin: miter; stroke-miterlimit: 4; is-custom-font: none; font-file-url: none; fill: rgb(255,255,255); fill-rule: nonzero; opacity: 1;" transform=" translate(-23.7079, -26.3577)" d="M 29.9948 26.9123 C 30.5273 26.8708 30.9382 26.4266 30.9382 25.8925 C 30.9382 25.3275 30.4802 24.8695 29.9153 24.8695 L 17.9657 24.8695 C 17.1439 24.8695 16.4776 25.5358 16.4776 26.3576 C 16.4776 27.2251 17.2166 27.9087 18.0814 27.8413 L 29.9948 26.9123 Z" stroke-linecap="round"/>
</g>
		<g transform="matrix(4.268 0 0 4.268 -39.6221 -2.8977)" id="386627">
<path style="stroke: none; stroke-width: 1; stroke-dasharray: none; stroke-linecap: butt; stroke-dashoffset: 0; stroke-linejoin: miter; stroke-miterlimit: 4; is-custom-font: none; font-file-url: none; fill: rgb(255,255,255); fill-rule: nonzero; opacity: 1;" transform=" translate(-9.8132, -24.8695)" d="M 9.49819 14.3714 C 9.52634 13.8903 9.92465 13.5146 10.4065 13.5146 C 10.909 13.5146 11.3164 13.922 11.3164 14.4245 L 11.3164 34.7212 C 11.3164 35.5514 10.6434 36.2243 9.81325 36.2243 C 8.94858 36.2243 8.26218 35.4966 8.31269 34.6334 L 9.49819 14.3714 Z" stroke-linecap="round"/>
</g>
		<g transform="matrix(4.268 0 0 4.268 2.2026 38.362)" id="481814">
<path style="stroke: none; stroke-width: 1; stroke-dasharray: none; stroke-linecap: butt; stroke-dashoffset: 0; stroke-linejoin: miter; stroke-miterlimit: 4; is-custom-font: none; font-file-url: none; fill: rgb(255,255,255); fill-rule: nonzero; opacity: 1;" transform=" translate(-19.6128, -34.5367)" d="M 30.0388 33.0322 C 30.5518 33.0322 30.9677 33.4481 30.9677 33.9611 C 30.9677 34.4536 30.5832 34.8605 30.0915 34.8885 L 9.84775 36.0387 C 8.98472 36.0877 8.25797 35.4011 8.25797 34.5367 C 8.25797 33.7058 8.93153 33.0322 9.76241 33.0322 L 30.0388 33.0322 Z" stroke-linecap="round"/>
</g>
</g>
</g>
</svg>